<?xml version="1.0" encoding="UTF-8"?>
<svg version="1.1" xmlns="http://www.w3.org/2000/svg" width="2000" height="2000" >

<path d="M0 0 C0.87301758 0.00021149 1.74603516 0.00042297 2.64550781 0.00064087 C23.32652923 0.05042746 43.16505363 2.19793772 62.6875 9.375 C63.99574333 9.83303334 65.30434574 10.29004221 66.61328125 10.74609375 C87.17903395 18.04620845 106.23498804 27.8957644 122.6875 42.375 C123.51507812 43.09300781 124.34265625 43.81101562 125.1953125 44.55078125 C127.73035576 46.78781786 130.2158734 49.06814851 132.6875 51.375 C133.54988281 52.17164063 134.41226562 52.96828125 135.30078125 53.7890625 C159.44986333 76.92465199 175.50008991 108.52693789 184.3125 140.5 C184.50682617 141.18449219 184.70115234 141.86898437 184.90136719 142.57421875 C189.36602031 159.5232245 190.2290454 176.62180306 190.125 194.0625 C190.12262329 195.11338806 190.12024658 196.16427612 190.11779785 197.24700928 C190.06230012 212.93705335 189.42243894 228.06472769 185.6875 243.375 C185.53265137 244.04853516 185.37780273 244.72207031 185.21826172 245.41601562 C184.2633156 249.48960636 183.05046129 253.42106278 181.6875 257.375 C181.44660645 258.08253418 181.20571289 258.79006836 180.95751953 259.51904297 C170.69615948 289.38569594 155.41229343 314.50856364 133.6875 337.375 C133.07003906 338.05691406 132.45257812 338.73882813 131.81640625 339.44140625 C108.73445325 364.06558328 73.35407533 381.43532102 40.6875 388.375 C38.86061646 388.77489136 38.86061646 388.77489136 36.99682617 389.18286133 C25.98998082 391.37262898 15.32029623 391.83934039 4.11279297 391.76611328 C1.19060614 391.75001711 -1.73019822 391.76606366 -4.65234375 391.78515625 C-16.20438404 391.79734227 -27.02568027 390.8116531 -38.3125 388.375 C-39.44405518 388.15223389 -40.57561035 387.92946777 -41.74145508 387.69995117 C-57.80417868 384.49719831 -72.9761645 378.15160639 -87.3125 370.375 C-89.06433594 369.45267578 -89.06433594 369.45267578 -90.8515625 368.51171875 C-135.25870885 344.30330827 -166.72116743 302.13428139 -181 254.0703125 C-182.31249523 249.47085609 -183.49381636 244.84950515 -184.5625 240.1875 C-184.71364258 239.53644287 -184.86478516 238.88538574 -185.02050781 238.21459961 C-188.05701643 224.1236231 -188.68700049 210.10608505 -188.625 195.75 C-188.62317719 194.87203766 -188.62135437 193.99407532 -188.61947632 193.08950806 C-188.5726479 179.67415798 -188.13862417 166.53784565 -185.3125 153.375 C-185.14089355 152.57481445 -184.96928711 151.77462891 -184.79248047 150.95019531 C-180.73764429 132.82482395 -174.09616797 115.70719591 -165.3125 99.375 C-164.95397949 98.69808105 -164.59545898 98.02116211 -164.22607422 97.32373047 C-159.30152309 88.06435573 -153.93611711 79.54558031 -147.3125 71.375 C-146.88710938 70.8480957 -146.46171875 70.32119141 -146.0234375 69.77832031 C-135.71522774 57.08143913 -124.41794074 46.1479373 -111.3125 36.375 C-110.48234375 35.74980469 -109.6521875 35.12460937 -108.796875 34.48046875 C-95.61667834 24.90913546 -81.33541305 17.56360027 -66.3125 11.375 C-64.90677734 10.77751953 -64.90677734 10.77751953 -63.47265625 10.16796875 C-57.49432593 7.79741439 -51.29794546 6.27758126 -45.0625 4.75 C-43.81279419 4.44026245 -43.81279419 4.44026245 -42.5378418 4.12426758 C-28.38752232 0.79470106 -14.46746779 -0.0324714 0 0 Z " fill="#4D0061" transform="translate(673.3125,862.625)"/>
<path d="M0 0 C31.35 0 62.7 0 95 0 C95 53.79 95 107.58 95 163 C100.28 159.7 105.56 156.4 111 153 C125.90759528 145.83510924 140.40960154 140.97787156 157.1171875 140.7265625 C157.88314743 140.71394379 158.64910736 140.70132507 159.4382782 140.68832397 C203.06555775 140.10995442 243.10254913 151.79396708 275.7578125 181.9453125 C277.69106313 183.71689757 279.66289334 185.39782341 281.6875 187.0625 C310.86202752 211.91978222 328.91112857 254.47107437 332 292 C332.34887237 299.50716653 332.25381899 307.02770946 332.22705078 314.54077148 C332.22648559 316.77940872 332.22680533 319.01804633 332.22793579 321.25668335 C332.22850609 327.29075967 332.21680431 333.32475535 332.20278788 339.35881305 C332.19022643 345.68085994 332.18910577 352.00290898 332.18673706 358.32496643 C332.18124101 368.92214312 332.16877605 379.5192936 332.15087891 390.11645508 C332.13247689 401.02400569 332.11834163 411.9315483 332.10986328 422.83911133 C332.10933783 423.51321847 332.10881239 424.18732562 332.10827102 424.88186025 C332.10566065 428.26418486 332.1031333 431.64650952 332.10064721 435.02883422 C332.07996646 463.01924782 332.04312491 491.00961149 332 519 C300.32 519 268.64 519 236 519 C236.01571045 512.30750977 236.0314209 505.61501953 236.04760742 498.71972656 C236.0973095 476.61149138 236.1306044 454.50325401 236.15543652 432.39497757 C236.15851594 429.72441858 236.16161993 427.05385965 236.16479492 424.38330078 C236.16558185 423.71954141 236.16636878 423.05578204 236.16717956 422.37190875 C236.17940356 412.3083002 236.20045505 402.24473438 236.22631836 392.18115234 C236.2562566 380.49523817 236.27558354 368.8093624 236.28226548 357.12341094 C236.28617022 350.93804276 236.29532258 344.7527844 236.31719017 338.56745148 C236.33762513 332.73986496 236.34381961 326.91243301 236.33932304 321.08481407 C236.34014511 318.95159501 236.34606875 316.81837053 236.35761642 314.68518257 C236.4295415 300.70726004 235.8497749 288.36435806 229.1875 275.75 C228.83421631 275.06671631 228.48093262 274.38343262 228.11694336 273.67944336 C225.50727487 268.73378169 222.7469977 264.17653158 219 260 C218.36835937 259.27683594 217.73671875 258.55367187 217.0859375 257.80859375 C206.30584754 246.22489708 190.58826805 237.68602819 174.56762695 236.87719727 C151.44654043 236.20503702 133.67508222 240.34876073 116.3125 256.5 C115.1678125 257.7375 115.1678125 257.7375 114 259 C113.55398438 259.44085937 113.10796875 259.88171875 112.6484375 260.3359375 C100.48170712 273.15329517 95.86188446 290.15763499 95.84178162 307.35205078 C95.83684364 308.26135125 95.83190566 309.17065172 95.82681805 310.10750675 C95.81153079 313.1367736 95.80310635 316.1660194 95.79467773 319.1953125 C95.78509231 321.37380659 95.77508184 323.55229884 95.76467896 325.73078918 C95.73769587 331.63300801 95.71665066 337.53523478 95.69667697 343.43748093 C95.67477665 349.61010935 95.64740778 355.78271347 95.62062073 361.95532227 C95.5707485 373.63877015 95.5257894 385.32223155 95.48259836 397.00570583 C95.4331792 410.30916134 95.37827844 423.61259119 95.32291877 436.91602325 C95.20918271 464.27732719 95.10304905 491.63865359 95 519 C63.65 519 32.3 519 0 519 C0 347.73 0 176.46 0 0 Z " fill="#4E0161" transform="translate(1579,729)"/>
<path d="M0 0 C31.02 0 62.04 0 94 0 C93.99887207 6.55447998 93.99774414 13.10895996 93.99658203 19.86206055 C93.99721069 41.56319294 94.03043494 63.26418611 94.0802784 84.9652586 C94.10969652 98.11742462 94.12812617 111.26942996 94.12011719 124.42163086 C94.11315995 135.89348774 94.12740107 147.36509561 94.16643608 158.83689147 C94.1863564 164.90357263 94.19611085 170.96986353 94.18042374 177.03656578 C94.16595167 182.76346255 94.180127 188.48961879 94.21495247 194.21642113 C94.22282818 196.30229887 94.22082112 198.38824501 94.20739174 200.47409439 C94.06877581 224.02291543 99.29360826 246.17377988 116.25 263.34375 C131.14367842 277.72968939 148.80734902 282.57679214 169.14794922 282.56030273 C186.81247372 282.00919014 201.83198279 272.28990053 214 260 C223.57196522 249.7581735 230.61487351 236.60753815 234 223 C234.24915696 222.01597592 234.24915696 222.01597592 234.5033474 221.01207256 C236.63960653 211.20083946 236.30863963 201.27681238 236.31884766 191.2902832 C236.32815723 189.2000134 236.33832742 187.10974727 236.34928894 185.01948547 C236.37648691 179.37156445 236.39170801 173.72366823 236.40471697 168.07569909 C236.4203923 162.16332688 236.44716843 156.25100498 236.4727478 150.33866882 C236.5194578 139.15469167 236.55623951 127.97070498 236.58942068 116.7866804 C236.63486015 101.66531419 236.69570441 86.54401039 236.75566864 71.42269611 C236.84967377 47.61516209 236.9231556 23.80760992 237 0 C268.02 0 299.04 0 331 0 C331 122.43 331 244.86 331 371 C323.41 371 315.82 371 308 371 C300.04875682 362.21178385 300.04875682 362.21178385 297.93359375 358.1796875 C295.00159873 352.87627009 291.55572391 348.10164028 287.9375 343.25 C284.52294013 338.56304788 281.17975686 333.8497011 278 329 C274.06073264 330.33604522 271.70462701 331.97351377 268.75 334.875 C248.68083058 353.3958062 222.4277938 367.24954458 196 374 C195.02675781 374.25966553 194.05351563 374.51933105 193.05078125 374.78686523 C183.14189993 377.19893324 173.65348136 377.51695885 163.5 377.4375 C162.66373077 377.43412628 161.82746155 377.43075256 160.96585083 377.42727661 C147.65171662 377.34958528 134.89099455 376.59022137 122 373 C121.13213867 372.75862305 120.26427734 372.51724609 119.37011719 372.26855469 C100.94413318 366.95143771 83.68542411 359.04208557 68 348 C66.95972656 347.27683594 65.91945313 346.55367187 64.84765625 345.80859375 C39.89367075 327.57892078 22.00636301 302.7300765 11 274 C10.6294751 273.08371826 10.6294751 273.08371826 10.25146484 272.14892578 C-1.95790092 241.64484223 -0.69944298 208.6535312 -0.50696969 176.42274213 C-0.47526992 170.19957639 -0.47274165 163.97639259 -0.46684265 157.75315857 C-0.45143034 146.0207667 -0.41057633 134.28861357 -0.3600952 122.55632585 C-0.32064511 113.1800529 -0.29315753 103.80382508 -0.2746582 94.42749023 C-0.27334459 93.76356066 -0.27203097 93.09963108 -0.27067754 92.41558243 C-0.26415053 89.08355637 -0.25784381 85.75152997 -0.25161803 82.41950333 C-0.19964626 54.94617355 -0.10811625 27.47317016 0 0 Z " fill="#4D0061" transform="translate(876,877)"/>
<path d="M0 0 C31.35 0 62.7 0 95 0 C95 48.84 95 97.68 95 148 C142.19 148 189.38 148 238 148 C238 179.35 238 210.7 238 243 C190.81 243 143.62 243 95 243 C95.061875 262.8 95.12375 282.6 95.1875 303 C95.19418701 309.22359375 95.20087402 315.4471875 95.20776367 321.859375 C95.23768659 327.49806706 95.23768659 327.49806706 95.27412415 333.13671875 C95.2870979 335.62431826 95.29049083 338.11198015 95.28596497 340.59960938 C95.25438472 364.74398767 98.4063224 385.36333861 116.11328125 403.27734375 C133.11615274 419.31388154 150.97268875 423.43625249 173.546875 423.51171875 C175.20264944 423.5272194 176.85841221 423.54402233 178.51416016 423.56213379 C184.59264511 423.61963449 190.67134609 423.65211105 196.75 423.6875 C210.3625 423.790625 223.975 423.89375 238 424 C238 455.02 238 486.04 238 518 C222.9025 518.0825 207.805 518.165 192.25 518.25 C187.52461914 518.28641602 182.79923828 518.32283203 177.93066406 518.36035156 C172.05419922 518.37841797 172.05419922 518.37841797 169.28265381 518.3817749 C167.39182746 518.38782254 165.50101417 518.40168744 163.61029053 518.42230225 C123.2793791 518.83913971 86.29967884 503.43163473 56 477 C55.20207031 476.32324219 54.40414062 475.64648438 53.58203125 474.94921875 C48.58657087 470.63990201 44.15879488 466.1178461 40 461 C39.25105469 460.08863281 38.50210938 459.17726563 37.73046875 458.23828125 C27.17706483 444.99251287 18.61817361 430.58136936 12 415 C11.53980469 413.93652344 11.07960938 412.87304688 10.60546875 411.77734375 C0.72575044 387.68993385 -0.45122918 362.05147671 -0.29296875 336.359375 C-0.28566604 333.65269213 -0.28294782 330.94600959 -0.28010559 328.23931885 C-0.27087693 321.9004502 -0.24639131 315.56174158 -0.21605712 309.22294259 C-0.18222246 301.9916839 -0.16595499 294.76041651 -0.15097082 287.52909803 C-0.11983044 272.68596226 -0.06493744 257.84303366 0 243 C-15.18 243 -30.36 243 -46 243 C-46 211.65 -46 180.3 -46 148 C-30.82 148 -15.64 148 0 148 C0 99.16 0 50.32 0 0 Z " fill="#4E0162" transform="translate(249,729)"/>
<path d="M0 0 C0.9049118 0.00021149 1.80982361 0.00042297 2.74215698 0.00064087 C17.19155815 0.03430981 31.11274808 0.84470876 45.1875 4.375 C45.92033203 4.55691895 46.65316406 4.73883789 47.40820312 4.92626953 C79.41889394 13.22561222 107.32644305 30.94494089 131.1875 53.375 C131.87457031 53.99632812 132.56164063 54.61765625 133.26953125 55.2578125 C140.5173585 62.06314083 146.41524297 70.31287573 152.1875 78.375 C152.70779785 79.09171875 153.2280957 79.8084375 153.76416016 80.546875 C154.24030762 81.24296875 154.71645508 81.9390625 155.20703125 82.65625 C155.63733643 83.27564453 156.0676416 83.89503906 156.51098633 84.53320312 C157.1875 86.375 157.1875 86.375 156.59671021 88.10998535 C154.60151677 91.31684713 151.99172482 93.82323225 149.31665039 96.45703125 C148.71645584 97.05591156 148.11626129 97.65479187 147.49787903 98.27182007 C145.51486225 100.24835144 143.52496911 102.21781262 141.53515625 104.1875 C140.15463841 105.56174586 138.77463551 106.93650919 137.39512634 108.31176758 C133.7623683 111.93122341 130.1240884 115.54507318 126.48419189 119.15734863 C120.66043633 124.93798883 114.84335567 130.72532627 109.02953911 136.51596069 C106.9983925 138.53689317 104.96386116 140.55437174 102.92897034 142.5715332 C101.68177896 143.81189511 100.43469766 145.05236772 99.18774414 146.29296875 C98.62192627 146.85204926 98.0561084 147.41112976 97.47314453 147.9871521 C94.80972772 150.64284901 92.33557426 153.28197352 90.1875 156.375 C87.1875 155.375 87.1875 155.375 85.4609375 152.19921875 C84.82296839 150.82269068 84.19050285 149.44360337 83.5625 148.0625 C74.87203884 129.94864721 61.57136067 116.18878442 44.1875 106.375 C43.17300781 105.79878906 42.15851563 105.22257813 41.11328125 104.62890625 C21.33522953 94.47397829 -3.70324723 93.38976645 -24.78613281 99.99316406 C-47.30257781 107.65477759 -64.20031837 122.88428916 -75.8125 143.375 C-76.42222656 144.43332031 -77.03195312 145.49164062 -77.66015625 146.58203125 C-86.31813824 162.62308359 -90.00001487 180.00322086 -89.99780273 198.11621094 C-89.99997939 200.10616174 -90.01846666 202.09607284 -90.03710938 204.0859375 C-90.07302985 227.98503001 -81.88741126 249.6837814 -65.8125 267.375 C-65.26207031 268.00664063 -64.71164062 268.63828125 -64.14453125 269.2890625 C-52.03205087 282.38848573 -34.83609688 290.19770578 -17.8125 294.375 C-16.92618896 294.63978149 -16.92618896 294.63978149 -16.02197266 294.90991211 C-10.75779064 296.01800788 -5.16864525 295.55983525 0.1875 295.5625 C1.45207031 295.57474609 2.71664063 295.58699219 4.01953125 295.59960938 C15.40034929 295.61719045 25.7417509 294.44858927 36.3125 290.125 C37.47060181 289.6609375 37.47060181 289.6609375 38.65209961 289.1875 C44.52675893 286.77459416 49.98247406 284.04024513 55.1875 280.375 C55.92871094 279.85421875 56.66992188 279.3334375 57.43359375 278.796875 C70.4326607 269.15458617 80.23678558 256.94691576 87.1875 242.375 C91.87774671 246.30205117 96.34809432 250.37597679 100.68945312 254.68408203 C101.29680298 255.28325439 101.90415283 255.88242676 102.52990723 256.49975586 C104.51249969 258.45779173 106.49115712 260.41972781 108.46875 262.3828125 C109.1475975 263.05633633 109.82644501 263.72986015 110.52586365 264.42379379 C114.10703044 267.97837992 117.68461685 271.53652971 121.25976562 275.09716797 C124.2190262 278.04301009 127.18541736 280.98138254 130.15820312 283.91357422 C133.7564062 287.46266182 137.34236869 291.02367928 140.91966248 294.59383774 C142.28385672 295.95129935 143.65231777 297.30448665 145.02503967 298.65332413 C146.93543764 300.53231788 148.82968331 302.42624074 150.72070312 304.32470703 C151.29304688 304.88064545 151.86539062 305.43658386 152.45507812 306.0093689 C154.00109863 307.58059692 154.00109863 307.58059692 156.1875 310.375 C155.90967687 321.13709189 138.21700437 334.89995695 131.14453125 341.76953125 C99.92799452 371.2947413 55.00054507 391.2026311 11.796875 391.61328125 C10.93794647 391.6230751 10.07901794 391.63286896 9.19406128 391.64295959 C-26.05679801 391.96270566 -26.05679801 391.96270566 -42.8125 387.375 C-43.658125 387.15537598 -44.50375 386.93575195 -45.375 386.70947266 C-93.24841059 374.12667333 -135.59170782 342.66866634 -160.9375 300.125 C-173.88064511 277.77908564 -182.00664412 254.91998511 -185.8125 229.375 C-185.9882959 228.30121094 -186.1640918 227.22742187 -186.34521484 226.12109375 C-186.86594275 221.94656453 -186.99170735 217.88111142 -187.015625 213.6796875 C-187.02263931 212.85830795 -187.02965363 212.03692841 -187.03688049 211.19065857 C-187.0543448 208.54371639 -187.06073583 205.89699774 -187.0625 203.25 C-187.06317474 202.34728363 -187.06384949 201.44456726 -187.06454468 200.51449585 C-187.0487405 187.23263884 -186.60491028 174.40258337 -183.8125 161.375 C-183.64621094 160.54162109 -183.47992187 159.70824219 -183.30859375 158.84960938 C-176.05496321 122.87697494 -159.41543492 89.61396366 -134.8125 62.375 C-134.04421875 61.48683594 -133.2759375 60.59867188 -132.484375 59.68359375 C-107.38571738 30.94299805 -70.2560324 9.65742673 -32.8125 2.375 C-31.93086182 2.19839844 -31.04922363 2.02179687 -30.14086914 1.83984375 C-20.10929415 0.05091548 -10.15642263 -0.02186715 0 0 Z " fill="#4D0061" transform="translate(1410.8125,862.625)"/>
<path d="M0 0 C1.17949219 0.29003906 1.17949219 0.29003906 2.3828125 0.5859375 C14.57966849 4.15688013 26.74285632 10.31764629 36 19 C36.97453125 19.88429688 37.9490625 20.76859375 38.953125 21.6796875 C56.11204736 37.69179664 68.01226135 61.70646045 69.16113281 85.31054688 C69.52987289 115.23852069 69.52987289 115.23852069 66 127 C65.50693359 128.79244141 65.50693359 128.79244141 65.00390625 130.62109375 C60.57015664 145.36446182 53.44375968 158.66327946 43 170 C42.17628906 170.94359375 42.17628906 170.94359375 41.3359375 171.90625 C28.32351917 186.00837824 6.77195616 196.95805693 -12.37036133 198.22265625 C-16.26905123 198.3411466 -20.16244686 198.38754765 -24.0625 198.375 C-24.75352814 198.3737915 -25.44455627 198.37258301 -26.15652466 198.37133789 C-48.85916288 198.26340402 -66.4209634 191.30205979 -84 177 C-85.051875 176.21625 -86.10375 175.4325 -87.1875 174.625 C-105.82458664 157.23038581 -117.45110234 131.93919766 -118.34375 106.5625 C-119.05581362 75.23888105 -113.01403916 48.22779491 -91.55078125 24.265625 C-67.6212284 -0.52794624 -32.90161805 -8.28346619 0 0 Z " fill="#FEFEFE" transform="translate(699,961)"/>
<path d="M0 0 C12.75660512 8.8380203 22.56027618 22.26092766 25.7578125 37.7265625 C27.77568669 56.66854283 24.22651825 73.32638066 12.296875 88.31640625 C3.59074703 98.48836189 -10.52842321 107.04537577 -24 109 C-41.60923696 110.21443014 -58.13754774 106.88528711 -71.89624023 95.08789062 C-84.54502711 83.59518644 -92.09998324 69.77347074 -93.21875 52.65234375 C-93.68103177 35.25899228 -88.22733721 20.80166965 -76.33447266 8.11499023 C-55.62366831 -12.81059804 -24.59015655 -15.33469485 0 0 Z " fill="#4E0161" transform="translate(183,1163)"/>
<path d="M0 0 C1.42026518 1.05109878 2.81763564 2.13401011 4.1875 3.25 C4.81398438 3.75273438 5.44046875 4.25546875 6.0859375 4.7734375 C12.1473644 10.19960568 15.64129518 17.61138555 18.1875 25.25 C18.27721327 27.47336607 18.30507853 29.69938893 18.30102539 31.92456055 C18.30117142 32.597995 18.30131744 33.27142944 18.3014679 33.965271 C18.30077175 36.18911979 18.29299332 38.41288461 18.28515625 40.63671875 C18.28329101 42.17942764 18.28186761 43.72213711 18.28086853 45.2648468 C18.27705169 49.32383868 18.26722851 53.38279473 18.25616455 57.44177246 C18.24593252 61.58422359 18.24136707 65.7266805 18.23632812 69.86914062 C18.2256055 77.99611201 18.20801543 86.12304742 18.1875 94.25 C11.5875 94.25 4.9875 94.25 -1.8125 94.25 C-1.8125 87.65 -1.8125 81.05 -1.8125 74.25 C-15.0125 74.25 -28.2125 74.25 -41.8125 74.25 C-41.8125 80.85 -41.8125 87.45 -41.8125 94.25 C-48.4125 94.25 -55.0125 94.25 -61.8125 94.25 C-61.90327477 85.70425359 -61.97648679 77.15888909 -62.01974869 68.6127882 C-62.04052399 64.64344903 -62.06865443 60.67446 -62.11425781 56.70532227 C-62.15807889 52.86679511 -62.1817125 49.02860234 -62.19200897 45.18984413 C-62.19933596 43.73356178 -62.21364185 42.27729539 -62.23542023 40.82115746 C-62.4333747 27.02269009 -59.63020501 15.60685708 -50 5.3125 C-36.39988669 -7.41018664 -16.09815437 -10.18732612 0 0 Z " fill="#4E0262" transform="translate(511.8125,746.75)"/>
<path d="M0 0 C1.29819906 0.90739173 2.59245222 1.82061755 3.875 2.75 C4.32230469 2.1725 4.76960937 1.595 5.23046875 1 C6.13732422 -0.11375 6.13732422 -0.11375 7.0625 -1.25 C7.65417969 -1.9925 8.24585938 -2.735 8.85546875 -3.5 C11.38895119 -5.69535809 12.62420697 -5.39978456 15.875 -5.25 C15.96823692 3.65227639 16.03903435 12.55438121 16.08224869 21.45704174 C16.10300363 25.59222515 16.13109573 29.72707121 16.17675781 33.86206055 C16.22065289 37.86269189 16.24422768 41.86300154 16.25450897 45.86385536 C16.26182295 47.37988655 16.2761021 48.89590284 16.29792023 50.41179466 C16.497722 64.88733715 14.33666309 76.87920155 4.09765625 87.61328125 C-4.11919915 95.46046217 -12.105174 98.19780354 -23.3125 98.0625 C-26.220625 97.959375 -29.12875 97.85625 -32.125 97.75 C-32.125 91.81 -32.125 85.87 -32.125 79.75 C-29.98 79.6675 -27.835 79.585 -25.625 79.5 C-19.74837511 79.06667311 -14.80626057 78.52558956 -10.125 74.75 C-8.46601813 72.81136118 -7.35716843 71.00897545 -6.125 68.75 C-8.27347539 68.63264902 -8.27347539 68.63264902 -10.7109375 69.72265625 C-20.61343391 72.70246924 -32.35546595 71.84943811 -41.578125 67.2890625 C-50.94404838 61.62928671 -57.34312432 53.44088547 -60.125 42.75 C-61.84163221 27.91272181 -60.54110516 16.33741843 -51.23046875 4.30078125 C-37.39637269 -10.94208223 -16.23734767 -10.62350498 0 0 Z " fill="#4F0463" transform="translate(602.125,771.25)"/>
<path d="M0 0 C2.1699805 1.41973918 4.29502295 2.87705468 6.39453125 4.3984375 C6.84183594 3.8209375 7.28914062 3.2434375 7.75 2.6484375 C8.65685547 1.5346875 8.65685547 1.5346875 9.58203125 0.3984375 C10.17371094 -0.3440625 10.76539063 -1.0865625 11.375 -1.8515625 C13.39453125 -3.6015625 13.39453125 -3.6015625 18.39453125 -3.6015625 C18.39453125 21.1484375 18.39453125 45.8984375 18.39453125 71.3984375 C13.39453125 71.3984375 13.39453125 71.3984375 11.375 69.4296875 C10.78332031 68.594375 10.19164062 67.7590625 9.58203125 66.8984375 C8.97746094 66.063125 8.37289062 65.2278125 7.75 64.3671875 C7.30269531 63.7175 6.85539063 63.0678125 6.39453125 62.3984375 C5.44191406 62.95273437 4.48929688 63.50703125 3.5078125 64.078125 C2.24098568 64.81006939 0.97405298 65.54183055 -0.29296875 66.2734375 C-1.23172852 66.82064453 -1.23172852 66.82064453 -2.18945312 67.37890625 C-12.00133834 73.0297302 -21.98935085 74.24450892 -33.0703125 71.55859375 C-43.8944923 67.42116595 -50.70237881 60.85465319 -55.453125 50.33984375 C-59.70497816 39.4868084 -60.11411139 28.34500711 -55.984375 17.3515625 C-51.47968211 7.70411823 -45.25492784 1.00172605 -35.60546875 -3.6015625 C-23.34030581 -7.84719583 -10.97060416 -6.74354979 0 0 Z " fill="#500663" transform="translate(949.60546875,769.6015625)"/>
<path d="M0 0 C5.39280914 4.13906688 5.39280914 4.13906688 7 7 C6.803703 10.81601369 4.51492176 13.10956767 2.125 15.9375 C1.31289063 16.90558594 0.50078125 17.87367188 -0.3359375 18.87109375 C-1.22348135 19.91446843 -2.11151362 20.95742782 -3 22 C-3.90924995 23.07388376 -4.81809995 24.14810629 -5.7265625 25.22265625 C-7.11520488 26.86426931 -8.50449986 28.50529927 -9.89624023 30.14428711 C-15.71417019 37.00124269 -21.39007773 43.97190946 -27 51 C-21.15883137 51.30742993 -17.23299698 50.96207376 -12 48 C-10.08900577 46.103483 -8.6011314 44.183361 -7 42 C-3.18683522 43.58956284 -0.627216 46.00760697 2.3125 48.875 C3.21613281 49.73867188 4.11976563 50.60234375 5.05078125 51.4921875 C7 54 7 54 7.03125 56.07421875 C3.34317968 62.96141067 -4.40104958 67.49854328 -11.50390625 70.140625 C-23.20201398 73.01613751 -33.66358844 72.01590026 -44.078125 65.96875 C-53.15252758 59.85444666 -59.32485033 50.72699094 -61.67578125 39.8828125 C-63.12108484 27.03179983 -60.86283164 15.62567835 -52.92578125 5.15625 C-39.03048596 -10.40197109 -16.65097322 -11.32089978 0 0 Z " fill="#4F0462" transform="translate(690,771)"/>
<path d="M0 0 C7.26886684 6.17391957 10.6338997 13.63495062 12.125 22.875 C12.37151508 26.52647362 12.35966075 30.15799804 12.3203125 33.81640625 C12.3174826 34.82468979 12.31465271 35.83297333 12.31173706 36.87181091 C12.30063177 40.06049983 12.27554545 43.24889741 12.25 46.4375 C12.23995772 48.61262612 12.23083406 50.78775669 12.22265625 52.96289062 C12.20072411 58.26703762 12.16626168 63.57096959 12.125 68.875 C5.855 68.875 -0.415 68.875 -6.875 68.875 C-6.8843457 67.48265137 -6.89369141 66.09030273 -6.90332031 64.65576172 C-6.94326397 59.47819303 -7.00903582 54.30121579 -7.08251953 49.12402344 C-7.11070362 46.88549409 -7.13193086 44.6468657 -7.14599609 42.40820312 C-7.16746048 39.18568306 -7.2141306 35.96435062 -7.265625 32.7421875 C-7.26685364 31.74508759 -7.26808228 30.74798767 -7.26934814 29.72067261 C-7.3932336 23.81169066 -7.96504092 20.39259406 -11.875 15.875 C-16.26226315 12.7860086 -21.74583748 13.12637946 -26.875 13.875 C-30.04954605 15.52994746 -32.25175639 17.62851278 -33.875 20.875 C-33.99340113 22.44706643 -34.05203033 24.02383269 -34.08032227 25.60009766 C-34.10026749 26.58096344 -34.12021271 27.56182922 -34.14076233 28.57241821 C-34.16583107 30.16465714 -34.16583107 30.16465714 -34.19140625 31.7890625 C-34.21218735 32.87383881 -34.23296844 33.95861511 -34.25437927 35.07626343 C-34.31990634 38.55077621 -34.37877447 42.02536624 -34.4375 45.5 C-34.48068221 47.85157058 -34.5242964 50.20313326 -34.56835938 52.5546875 C-34.67559098 58.32804529 -34.77684955 64.10148098 -34.875 69.875 C-41.475 69.875 -48.075 69.875 -54.875 69.875 C-54.875 45.125 -54.875 20.375 -54.875 -5.125 C-48.875 -5.125 -48.875 -5.125 -47.1953125 -3.8125 C-46.08854167 -2.25 -44.98177083 -0.6875 -43.875 0.875 C-43.2459375 0.46507812 -42.616875 0.05515625 -41.96875 -0.3671875 C-28.15870674 -9.06085931 -13.76505827 -9.80238998 0 0 Z " fill="#510764" transform="translate(760.875,771.125)"/>
<path d="M0 0 C4.47184105 3.07042945 8.49636157 6.11219088 11.48046875 10.703125 C11.33808959 15.06941932 7.98493476 17.60461407 5.04296875 20.453125 C4.53958984 20.95972656 4.03621094 21.46632813 3.51757812 21.98828125 C-0.25233743 25.703125 -0.25233743 25.703125 -2.51953125 25.703125 C-3.24140625 24.61 -3.96328125 23.516875 -4.70703125 22.390625 C-7.33604942 18.62617579 -9.99606445 16.66033801 -14.51953125 15.703125 C-19.89319035 14.99773317 -24.78071993 14.71848021 -29.45703125 17.765625 C-33.96723416 21.69036888 -36.25254721 25.10003057 -36.86328125 31.0546875 C-37.04116589 38.0959543 -37.05286949 43.91804765 -31.984375 49.34765625 C-25.98774313 53.93331591 -22.01813293 54.43173407 -14.51953125 53.703125 C-9.12225436 52.06163914 -5.67430758 49.43528949 -2.51953125 44.703125 C1.29363353 46.29268784 3.85325275 48.71073197 6.79296875 51.578125 C7.69660156 52.44179688 8.60023438 53.30546875 9.53125 54.1953125 C11.48046875 56.703125 11.48046875 56.703125 11.5234375 58.7734375 C7.74094699 65.77175328 -0.15838189 70.32552749 -7.51953125 72.703125 C-16.37371261 74.94699288 -27.57609245 75.25168927 -35.70703125 70.83203125 C-36.30515625 70.45949219 -36.90328125 70.08695313 -37.51953125 69.703125 C-38.55078125 69.105 -39.58203125 68.506875 -40.64453125 67.890625 C-49.20190596 61.37957903 -55.02571414 53.53415466 -57.234375 42.8125 C-58.76389026 31.49827753 -56.6139969 20.95560259 -50.33203125 11.328125 C-38.27155832 -4.47879271 -17.6162701 -10.06644006 0 0 Z " fill="#4F0463" transform="translate(839.51953125,768.296875)"/>
<path d="M0 0 C6.6 0 13.2 0 20 0 C20 24.75 20 49.5 20 75 C13.4 75 6.8 75 0 75 C0 50.25 0 25.5 0 0 Z " fill="#550E68" transform="translate(861,766)"/>
<path d="M0 0 C5.96041523 2.30942133 9.7796011 6.38724876 13.08935547 11.77246094 C14.26691947 14.65291508 14.22578403 16.97002867 14.1953125 20.078125 C14.19031738 21.12387695 14.18532227 22.16962891 14.18017578 23.24707031 C14.16196777 24.56803711 14.14375977 25.88900391 14.125 27.25 C14.08375 31.4575 14.0425 35.665 14 40 C0.8 40 -12.4 40 -26 40 C-26.0825 36.04 -26.165 32.08 -26.25 28 C-26.28641602 26.76765625 -26.32283203 25.5353125 -26.36035156 24.265625 C-26.42692701 17.63385171 -26.02460145 12.44251541 -22 7 C-19.9296875 4.94140625 -19.9296875 4.94140625 -17.875 3.5625 C-16.85019531 2.85287109 -16.85019531 2.85287109 -15.8046875 2.12890625 C-10.86104585 -0.96354491 -5.69189139 -0.63480994 0 0 Z " fill="#FCFCFD" transform="translate(496,761)"/>
<path d="M0 0 C4.68391237 2.78137477 7.69370942 6.50864257 9.6875 11.5625 C10.50917656 17.23953806 10.31820618 22.43386665 8.6875 27.9375 C5.24018488 32.46210109 1.15339939 36.74053354 -4.3125 38.5625 C-9.5249181 39.06164836 -13.91620235 39.23479146 -18.6875 36.9375 C-23.93495074 32.18980648 -26.96570692 28.58529974 -27.5859375 21.390625 C-27.92596932 9.41104235 -27.92596932 9.41104235 -23.84765625 4.1171875 C-17.34242857 -2.47080389 -8.58276043 -3.56792914 0 0 Z " fill="#FCFCFD" transform="translate(938.3125,784.4375)"/>
<path d="M0 0 C4.68391237 2.78137477 7.69370942 6.50864257 9.6875 11.5625 C10.50917656 17.23953806 10.31820618 22.43386665 8.6875 27.9375 C5.24018488 32.46210109 1.15339939 36.74053354 -4.3125 38.5625 C-9.5799928 39.06692239 -13.94429168 39.2341659 -18.75 36.875 C-23.80142068 32.31640085 -26.90471747 28.15527874 -27.68359375 21.29296875 C-27.90676522 9.38611446 -27.90676522 9.38611446 -23.84765625 4.1171875 C-17.34242857 -2.47080389 -8.58276043 -3.56792914 0 0 Z " fill="#FCFCFD" transform="translate(588.3125,784.4375)"/>
<path d="M0 0 C4.70357991 2.13321488 8.01165012 5.44295555 11.75 8.9375 C12.44738281 9.57107422 13.14476562 10.20464844 13.86328125 10.85742188 C14.52199219 11.47037109 15.18070313 12.08332031 15.859375 12.71484375 C16.46233398 13.27292725 17.06529297 13.83101074 17.68652344 14.40600586 C19 16 19 16 19 19 C17.6875 21.04296875 17.6875 21.04296875 16 23.1875 C15.443125 23.90292969 14.88625 24.61835937 14.3125 25.35546875 C13.879375 25.89816406 13.44625 26.44085937 13 27 C9.81440048 25.60366893 7.76056155 23.95442507 5.375 21.4375 C2.95478041 18.85984611 2.95478041 18.85984611 0 17 C0 17.66 0 18.32 0 19 C-1.64453125 20.7265625 -1.64453125 20.7265625 -3.8125 22.625 C-4.87404297 23.57246094 -4.87404297 23.57246094 -5.95703125 24.5390625 C-8 26 -8 26 -11 26 C-12.82421875 24.25 -12.82421875 24.25 -14.6875 22 C-15.31011719 21.2575 -15.93273437 20.515 -16.57421875 19.75 C-17.04472656 19.1725 -17.51523437 18.595 -18 18 C-12.63343156 11.29178945 -6.38332373 5.71193855 0 0 Z " fill="#500764" transform="translate(662,731)"/>
<path d="M0 0 C4.29044335 2.27141119 7.47798138 4.82896921 10 9 C10.62741785 13.3134977 10.32346757 15.39927452 8.25 19.25 C5.66789127 22.40591067 3.7219338 24.65902301 -0.3671875 25.46875 C-4.72839788 25.5230953 -7.99129387 25.5500512 -11.5 22.75 C-14.80640712 19.11295217 -15.83222901 17.50993888 -16.375 12.625 C-15.92515417 8.27649031 -14.79790424 6.32723747 -12 3 C-8.07324125 -0.18385844 -4.98824428 -0.6125914 0 0 Z " fill="#510764" transform="translate(874,733)"/>
<path d="M0 0 C1.50433594 0.01353516 1.50433594 0.01353516 3.0390625 0.02734375 C3.80992187 0.03894531 4.58078125 0.05054688 5.375 0.0625 C4.09484177 3.61845195 2.6123893 6.32774879 0.2578125 9.27734375 C-0.34933594 10.04626953 -0.95648437 10.81519531 -1.58203125 11.60742188 C-2.21496094 12.39697266 -2.84789062 13.18652344 -3.5 14 C-7.40763709 18.91073156 -11.24432532 23.77063989 -14.625 29.0625 C-15.615 28.7325 -16.605 28.4025 -17.625 28.0625 C-18.37774197 11.81581922 -18.37774197 11.81581922 -13.625 6.0625 C-9.15663174 1.73091853 -6.23703511 -0.07252366 0 0 Z " fill="#FAF9FA" transform="translate(665.625,782.9375)"/>
</svg>
